<svg width="79" height="92" viewBox="0 0 79 92" fill="none" xmlns="http://www.w3.org/2000/svg">
<rect width="60.997" height="80.7595" rx="6" transform="matrix(0.991034 0.133611 -0.133679 0.991025 10.7969 3.69531)" fill="#5C6DB9"/>
<rect x="19.1328" y="0.851631" width="59.9969" height="79.7597" rx="5.5" transform="rotate(8.76894 19.1328 0.851631)" fill="white" stroke="#1A213F"/>
<rect x="7.21875" y="0.5" width="59.9973" height="79.7592" rx="5.5" fill="white" stroke="#1A213F"/>
<rect x="26.5547" y="55.75" width="22.5701" height="2.6553" rx="1" fill="#C3C1C1"/>
<rect x="16.0156" y="63.0469" width="44.5115" height="1.64858" rx="0.5" fill="#C4C1C1"/>
<path d="M37.5117 10.5781L41.9307 13.8007L47.4003 13.7903L49.0806 18.9941L53.5117 22.1998L51.8116 27.3972L53.5117 32.5945L49.0806 35.8002L47.4003 41.004L41.9307 40.9937L37.5117 44.2162L33.0928 40.9937L27.6232 41.004L25.9429 35.8002L21.5117 32.5945L23.2118 27.3972L21.5117 22.1998L25.9429 18.9941L27.6232 13.7903L33.0928 13.8007L37.5117 10.5781Z" fill="#3752C6"/>
<path d="M31.9159 27.8809L36.2432 32.2071L44.8979 23.5547" stroke="white" stroke-width="1.08333" stroke-linecap="round" stroke-linejoin="round"/>
</svg>
